<svg viewBox="0 0 1000 1000" xmlns="http://www.w3.org/2000/svg"><path d="m972.14 624.35v10.41 2.23 1.67c0 .73 0 1.45-.08 2.18 0 1-.1 2-.17 3s-.15 2-.24 3-.19 2-.3 3-.23 1.92-.36 2.87-.31 2.2-.49 3.3q-.21 1.32-.45 2.64c-.19 1.06-.4 2.12-.62 3.17v.16c-.18.87-.37 1.74-.58 2.61-.06.27-.12.55-.19.81-.2.87-.42 1.73-.64 2.6v.07c-.27 1-.55 2.06-.84 3.08-.17.59-.34 1.18-.52 1.77s-.35 1.17-.54 1.76-.35 1.12-.54 1.68c-.43 1.33-.89 2.64-1.37 3.94q-1.19 3.24-2.53 6.39c-.24.56-.48 1.12-.73 1.67-.54 1.22-1.09 2.44-1.67 3.64-.21.43-.42.87-.64 1.3q-1.2 2.44-2.5 4.83c-.5.91-1 1.81-1.52 2.7a133 133 0 0 1 -25.46 31.69c-.46.43-.93.85-1.4 1.27l-.14.12-1.61 1.4a131.59 131.59 0 0 1 -24.37 16.59c-2.38 1.26-4.81 2.45-7.27 3.56a128.46 128.46 0 0 1 -15 5.71c-1.21.38-2.43.74-3.65 1.08l-2.51.68c-.84.22-1.69.43-2.53.63-.61.15-1.21.29-1.82.42l-1.42.31c-.62.14-1.25.27-1.88.39l-1.35.25-1.52.28h-.17l-1.82.3c-1 .16-2.05.31-3.08.45l-1.31.17-1.6.19-1.9.2-2.71.23-1.93.13-2 .12h-.23l-1.92.07c-.69 0-1.39 0-2.09 0h-2.1-53.83a27.32 27.32 0 0 0 -27.31 27.32v102h-456.69v-101.91a27.26 27.26 0 0 0 -17.36-25.43c-.38-.15-.77-.3-1.17-.43s-.62-.21-.94-.3-.38-.12-.57-.16a5.62 5.62 0 0 0 -.55-.15 7.31 7.31 0 0 0 -.78-.18 24.72 24.72 0 0 0 -3-.51l-.67-.06c-.35 0-.7-.06-1.05-.07s-.82 0-1.23 0h-90.38c-1.43 0-2.84 0-4.26-.06a137.23 137.23 0 0 1 -32.13-4.81c-.86-.23-1.71-.48-2.56-.73-1.21-.35-2.4-.72-3.59-1.11-1-.31-2-.64-2.93-1q-2.25-.79-4.45-1.66l-.45-.18c-.53-.2-1.05-.41-1.57-.63s-1.25-.5-1.86-.77l-.9-.38c-.8-.34-1.59-.7-2.38-1.07-1-.47-2.09-1-3.12-1.46s-1.91-.94-2.86-1.44c-.56-.29-1.12-.58-1.67-.88l-1.31-.71-1.28-.71c-.92-.52-1.83-1-2.74-1.58s-1.81-1.08-2.7-1.64l-.12-.07-2.35-1.51-.81-.53-2-1.35c-.87-.6-1.73-1.2-2.58-1.82h-.06c-.69-.5-1.37-1-2-1.52-1.82-1.36-3.6-2.78-5.34-4.23l-.52-.43c-.38-.32-.76-.64-1.13-1l-1.63-1.41c-2.06-1.81-4.06-3.7-6-5.64a138.1 138.1 0 0 1 -20.44-26.05c-.73-1.21-1.45-2.43-2.14-3.66l-.9-1.61c-.33-.6-.65-1.19-1-1.79s-.51-1-.75-1.45c-.79-1.52-1.54-3.07-2.26-4.62-.29-.61-.57-1.22-.85-1.84s-.59-1.33-.86-2c-.18-.38-.34-.77-.5-1.16-.62-1.46-1.2-2.92-1.76-4.4l-.45-1.21c-.49-1.32-1-2.65-1.39-4-.22-.65-.43-1.3-.64-2-.3-.94-.59-1.88-.86-2.82-.06-.2-.12-.39-.17-.59-.25-.83-.48-1.67-.7-2.51-.06-.21-.11-.42-.16-.63-.17-.63-.34-1.26-.49-1.9-.11-.41-.21-.83-.3-1.25-.22-.93-.43-1.86-.63-2.8-.06-.24-.11-.48-.16-.72a137.91 137.91 0 0 1 -2.93-28.35c0-.7 0-1.4 0-2.11q0-.76 0-1.53v-1.13c0-.43 0-.86.05-1.29 0-.86.08-1.71.14-2.56s.09-1.49.15-2.22a.25.25 0 0 1 0-.08c0-.47.07-.95.12-1.42q.24-2.82.6-5.6c.12-.93.25-1.85.4-2.77.38-2.58.85-5.14 1.38-7.67.23-1.15.49-2.29.76-3.43q1.07-4.5 2.43-8.9.77-2.46 1.62-4.89c.42-1.21.87-2.41 1.32-3.61a136.61 136.61 0 0 1 12.5-24.77 138.47 138.47 0 0 1 31.94-34.94q4.42-3.43 9.16-6.5a136.79 136.79 0 0 1 38.54-17.32q5.91-1.62 12-2.71 4.53-.83 9.16-1.33a138.87 138.87 0 0 1 15.37-.72h106.05a35.75 35.75 0 0 0 35.75-34.84c0-.3 0-.61 0-.92 0-.14 0-.28 0-.41a35.74 35.74 0 0 0 -29.9-34.86 35.34 35.34 0 0 0 -5.85-.48h-178.88-2.1a83.19 83.19 0 0 1 -57-24.46c-.93-.93-1.84-1.88-2.72-2.85a83.55 83.55 0 0 1 0-112.54c.88-1 1.79-1.92 2.72-2.85a83.19 83.19 0 0 1 57-24.46q1 0 2.1 0a69 69 0 0 0 36.44-10.35 69.94 69.94 0 0 0 12-9.42 69.24 69.24 0 0 0 20.84-49.52v-70.6a27.32 27.32 0 0 1 27.34-27.44h636.58a83.61 83.61 0 0 1 33.68 160.14 81.56 81.56 0 0 1 -9.16 3.41 83.43 83.43 0 0 1 -24.52 3.66h-68a48.57 48.57 0 0 0 -23.29 5.93c-1.26.69-2.49 1.44-3.68 2.24a48.57 48.57 0 0 0 -21.63 40.42 48.57 48.57 0 0 0 48.6 48.59c.89 0 1.77 0 2.65.06a62.43 62.43 0 0 1 30.1 9.12c1.08.65 2.13 1.33 3.16 2.05a61.91 61.91 0 0 1 6 4.73 62.85 62.85 0 0 1 21.11 47.06v43a43.93 43.93 0 0 0 29.5 41.59c.59.21 1.19.4 1.79.58 2.38.71 4.84 1.49 7.37 2.37 5.09 1.73 10.44 3.8 15.91 6.25a152 152 0 0 1 34.65 21.21 123.15 123.15 0 0 1 9.16 8.34 115.25 115.25 0 0 1 15.22 18.87 112.89 112.89 0 0 1 13.13 28.38q.74 2.4 1.38 4.89c.75 2.88 1.42 5.85 2 8.9.16.88.32 1.77.46 2.67s.29 1.79.42 2.7.25 1.83.36 2.75q.13 1.05.24 2.13c0 .22.05.45.07.67.09.83.17 1.67.24 2.51 0 .42.07.85.1 1.28.07.92.14 1.85.19 2.79s.11 1.8.14 2.71.07 2.12.09 3.2v1c.02.66.03 1.4.03 2.15z" fill="#fffaf4"/><rect fill="#f2e1d3" height="23.42" rx="2.7" width="55.69" x="810.91" y="544.94"/><rect fill="#f9eee4" height="23.42" rx="2.7" width="55.69" x="772.72" y="577.3"/><rect fill="#f9e7d9" height="23.42" rx="2.7" width="55.69" x="847.46" y="577.3"/><rect fill="#f2e1d3" height="23.42" rx="2.7" transform="matrix(-1 0 0 -1 1409.3 382.45)" width="55.69" x="676.8" y="179.52"/><rect fill="#f9eee4" height="23.42" rx="2.7" transform="matrix(-1 0 0 -1 1485.68 317.74)" width="55.69" x="714.99" y="147.16"/><rect fill="#f9e7d9" height="23.42" rx="2.7" transform="matrix(-1 0 0 -1 1336.18 317.74)" width="55.69" x="640.25" y="147.16"/><rect fill="#f9eee4" height="23.42" rx="2.7" width="55.69" x="120.26" y="677.28"/><rect fill="#f9e7d9" height="23.42" rx="2.7" width="55.69" x="264.59" y="677.28"/><rect fill="#f9e7d9" height="23.42" rx="2.7" width="55.69" x="157.9" y="710.2"/><rect fill="#e5cdba" height="436.74" rx="16.36" transform="matrix(-1 0 0 -1 997.44 625.5)" width="201.83" x="397.81" y="94.38"/><rect fill="#fffaf4" height="390.42" rx="16.36" transform="matrix(-1 0 0 -1 997.44 625.5)" width="162.12" x="417.66" y="117.54"/><path d="m417.66 175.05v316.55a16.36 16.36 0 0 0 16.34 16.4h97v-159.45a6 6 0 0 0 -6-6h-31.2a6 6 0 0 1 -6-6v-155.5a6 6 0 0 0 -6-6z" fill="#f9eee4"/><g fill="#fffaf4"><path d="m509.55 363.96h7.52v7.52h-7.52z" transform="matrix(-1 0 0 -1 1026.62 735.45)"/><path d="m509.55 397.6h7.52v7.52h-7.52z" transform="matrix(-1 0 0 -1 1026.62 802.73)"/><path d="m509.55 431.24h7.52v7.52h-7.52z" transform="matrix(-1 0 0 -1 1026.62 870.01)"/><path d="m509.55 464.88h7.52v7.52h-7.52z" transform="matrix(-1 0 0 -1 1026.62 937.29)"/><path d="m509.55 498.52h7.52v7.52h-7.52z" transform="matrix(-1 0 0 -1 1026.62 1004.57)"/><path d="m483.99 396.88h7.52v7.52h-7.52z" transform="matrix(-1 0 0 -1 975.49 801.27)"/><path d="m466.79 186.94h7.52v7.52h-7.52z" transform="matrix(-1 0 0 -1 941.09 381.41)"/><path d="m466.79 234.01h7.52v7.52h-7.52z" transform="matrix(-1 0 0 -1 941.09 475.54)"/><path d="m466.79 281.07h7.52v7.52h-7.52z" transform="matrix(-1 0 0 -1 941.09 569.67)"/><path d="m466.79 328.14h7.52v7.52h-7.52z" transform="matrix(-1 0 0 -1 941.09 663.79)"/><path d="m466.79 375.2h7.52v7.52h-7.52z" transform="matrix(-1 0 0 -1 941.09 757.92)"/><path d="m466.79 422.26h7.52v7.52h-7.52z" transform="matrix(-1 0 0 -1 941.09 852.05)"/><path d="m466.79 469.33h7.52v7.52h-7.52z" transform="matrix(-1 0 0 -1 941.09 946.18)"/><path d="m449.44 212.38h7.52v7.52h-7.52z" transform="matrix(-1 0 0 -1 906.41 432.28)"/><path d="m449.44 259.44h7.52v7.52h-7.52z" transform="matrix(-1 0 0 -1 906.41 526.41)"/><path d="m449.44 306.51h7.52v7.52h-7.52z" transform="matrix(-1 0 0 -1 906.41 620.54)"/><path d="m449.44 353.57h7.52v7.52h-7.52z" transform="matrix(-1 0 0 -1 906.41 714.66)"/><path d="m449.44 400.64h7.52v7.52h-7.52z" transform="matrix(-1 0 0 -1 906.41 808.79)"/><path d="m449.44 447.7h7.52v7.52h-7.52z" transform="matrix(-1 0 0 -1 906.41 902.92)"/><path d="m449.44 494.76h7.52v7.52h-7.52z" transform="matrix(-1 0 0 -1 906.41 997.05)"/><path d="m428.14 186.51h7.52v7.52h-7.52z" transform="matrix(-1 0 0 -1 863.8 380.54)"/><path d="m428.14 233.57h7.52v7.52h-7.52z" transform="matrix(-1 0 0 -1 863.8 474.66)"/><path d="m428.14 280.64h7.52v7.52h-7.52z" transform="matrix(-1 0 0 -1 863.8 568.79)"/><path d="m428.14 327.7h7.52v7.52h-7.52z" transform="matrix(-1 0 0 -1 863.8 662.92)"/><path d="m428.14 374.76h7.52v7.52h-7.52z" transform="matrix(-1 0 0 -1 863.8 757.05)"/><path d="m428.14 421.83h7.52v7.52h-7.52z" transform="matrix(-1 0 0 -1 863.8 851.18)"/><path d="m428.14 468.89h7.52v7.52h-7.52z" transform="matrix(-1 0 0 -1 863.8 945.3)"/><path d="m491.2 447.12h7.52v7.52h-7.52z" transform="matrix(-1 0 0 -1 989.92 901.77)"/></g><g fill="#e5cdba"><path d="m453.2 108.84h4.87v407.83h-4.87z" transform="matrix(-1 0 0 -1 911.28 625.5)"/><path d="m543.4 108.84h4.87v407.83h-4.87z" transform="matrix(-1 0 0 -1 1091.67 625.5)"/><path d="m497.46 45.24h4.87v197.84h-4.87z" transform="matrix(0 1 -1 0 644.06 -355.74)"/><path d="m497.46 213.83h4.87v197.84h-4.87z" transform="matrix(0 1 -1 0 812.65 -187.15)"/><path d="m405.35 254.1h186.74v22.06h-186.74z" transform="matrix(-1 0 0 -1 997.44 530.25)"/></g><rect fill="#a66633" height="17.61" rx="8.8" transform="matrix(-1 0 0 -1 221.75 1810.37)" width="74.06" x="73.85" y="896.38"/><rect fill="#a66633" height="17.61" rx="8.8" transform="matrix(-1 0 0 -1 1120.09 1810.37)" width="809.94" x="155.08" y="896.38"/><g fill="#000b42"><path d="m577.68 814.48-79-147.3a32 32 0 0 0 -43.26-13.06 32 32 0 0 0 -13.06 43.26l79 147.3z"/><path d="m525.91 824.49h46.68v22.89h-46.68z" transform="matrix(.88130345 -.47255076 .47255076 .88130345 -329.86 358.83)"/><path d="m472.29 716.75h85a44 44 0 0 0 44-44v-10.75a12.7 12.7 0 0 0 -12.7-12.7h-116.3a33.72 33.72 0 0 0 -33.72 33.7 33.72 33.72 0 0 0 33.72 33.75z"/><path d="m560 848.52-38.5 25.14a23 23 0 0 1 38.5-25.14z"/><path d="m520.29 880.84-3.6-6.06a5.77 5.77 0 0 1 1.73-7.72l50-34a7.22 7.22 0 0 1 10.27 2.28l6.65 11.23z"/><path d="m583.37 843.2 4.63 7.8-60.36 35.77a8 8 0 0 1 -10.93-2.8 8 8 0 0 1 2.79-10.93l15.73-9.32a6.85 6.85 0 0 1 9.38 2.4z"/></g><g fill="#d85e66"><rect height="127.19" rx="23.04" transform="matrix(.11597734 -.99325186 .99325186 .11597734 -113.27 1037.18)" width="46.09" x="503" y="518.63"/><ellipse cx="477.21" cy="577.17" rx="29.38" ry="23.78" transform="matrix(.99665167 -.08176456 .08176456 .99665167 -45.58 40.94)"/><path d="m494 554.92a6.61 6.61 0 0 1 3.15 8.8 6.61 6.61 0 0 1 -8.8 3.14l-18.62-8.8a6.61 6.61 0 0 1 -3.15-8.8 6.61 6.61 0 0 1 8.8-3.15"/></g><path d="m565.6 568.95h194a63.55 63.55 0 0 1 63.55 63.55v31.78a0 0 0 0 1 0 0h-162.23a95.32 95.32 0 0 1 -95.32-95.32 0 0 0 0 1 0-.01z" fill="#a45b0d" transform="matrix(-.13658011 .99062903 -.99062903 -.13658011 1399.98 12.91)"/><path d="m194.59 611.11h348.2a1.85 1.85 0 0 1 1.85 1.85v9.92a3.71 3.71 0 0 1 -3.71 3.71h-344.49a3.71 3.71 0 0 1 -3.71-3.71v-9.88a1.85 1.85 0 0 1 1.86-1.89z" fill="#a45b0d"/><path d="m544.64 616.36v6.52a3.7 3.7 0 0 1 -3.71 3.71h-344.49a3.71 3.71 0 0 1 -3.7-3.71v-6.52a3.7 3.7 0 0 0 3.7 3.7h344.49a3.69 3.69 0 0 0 3.71-3.7z" fill="#914d08"/><path d="m273 626.59h191.41a0 0 0 0 1 0 0v9.91a3.71 3.71 0 0 1 -3.71 3.71h-184a3.71 3.71 0 0 1 -3.7-3.71v-9.91a0 0 0 0 1 0 0z" fill="#e3892c"/><path d="m464.41 631.39v5.12a3.71 3.71 0 0 1 -3.71 3.7h-184a3.71 3.71 0 0 1 -3.71-3.7v-5.12a3.71 3.71 0 0 0 3.71 3.71h184a3.71 3.71 0 0 0 3.71-3.71z" fill="#a45b0d"/><path d="m363.4 640.21h10.58v256.17h-10.58z" fill="#e3892c"/><path d="m363.4 640.21h10.58v23.93h-10.58z" fill="#a45b0d"/><path d="m348.66 640.21h40.07a0 0 0 0 1 0 0v9.28a3.71 3.71 0 0 1 -3.73 3.71h-32.64a3.71 3.71 0 0 1 -3.71-3.71v-9.28a0 0 0 0 1 .01 0z" fill="#e3892c"/><path d="m388.73 645.09v4.41a3.71 3.71 0 0 1 -3.71 3.7h-32.66a3.7 3.7 0 0 1 -3.7-3.7v-4.41a3.7 3.7 0 0 0 3.7 3.7h32.64a3.71 3.71 0 0 0 3.73-3.7z" fill="#a45b0d"/><circle cx="548.02" cy="420" fill="#b35006" r="20.3"/><path d="m549.44 440.24c-.47 0-.94.05-1.42.05a20.3 20.3 0 1 1 0-40.59c.48 0 1 0 1.42.05a20.29 20.29 0 0 0 0 40.49z" fill="#001066"/><path d="m571.15 420a20.29 20.29 0 0 1 -20.29 20.3c-.48 0-1 0-1.42-.05a20.29 20.29 0 0 1 0-40.49c.47 0 .94-.05 1.42-.05a20.3 20.3 0 0 1 20.29 20.29z" fill="#000d44"/><path d="m627.9 490.89-51.12 17.59-12.22-35.52-6.45-18.74 51.12-17.59 4.8 13.95z" fill="#f0a284"/><g fill="#fff"><rect height="30.68" rx="4.65" transform="matrix(.94557538 -.32540313 .32540313 .94557538 -125.37 220.8)" width="58.93" x="567.89" y="469.84"/><path d="m569.76 558.71h102.55v114.39h-102.55z" transform="matrix(.99999925 .00122173 -.00122173 .99999925 .73 -.74)"/><ellipse cx="606.03" cy="547.36" rx="69.04" ry="67.34" transform="matrix(.00122173 -.99999925 .99999925 .00122173 57.95 1152.74)"/></g><path d="m609.49 616.32c-1.17.06-2.36.09-3.54.09-37.19 0-67.3-31-67.26-69.13s30.23-69 67.42-69c1.13 0 2.26 0 3.37.09-35.54 1.85-63.82 32-63.86 68.87s28.25 67.23 63.87 69.08z" fill="#f3f9ff"/><path d="m677.82 662v10.73a44 44 0 0 1 -41.3 43.92h-.48c-.74 0-1.48.06-2.23.06h-85a33.72 33.72 0 1 1 0-67.44h116.3a12.71 12.71 0 0 1 12.71 12.73z" fill="#313d8b"/><path d="m571 701.45-1 1.24-11.65 14.06-59.52 71.86-59.42 71.74-49.21-40.77 25.66-31 83.54-100.85 22.4-27a31.86 31.86 0 0 1 24.62-11.58 31.41 31.41 0 0 1 3.49.2 31.95 31.95 0 0 1 21.09 52.1z" fill="#313d8b"/><g fill="#2a397f"><path d="m677.82 671.12v1.62a44 44 0 0 1 -41.3 43.92h-.48c-.74 0-1.48.06-2.23.06h-85a33.65 33.65 0 0 1 -23.43-9.47l20.53-24.78a31.86 31.86 0 0 1 24.62-11.58 31.27 31.27 0 0 1 3.49.2z"/><path d="m571 701.45-1 1.24-11.65 14.06-9.59 11.59-49.93 60.27-59.42 71.74-24.2-20 24.79-29.93 83.56-100.88 1.87-2.26 20.53-24.78a31.86 31.86 0 0 1 24.62-11.58 31.27 31.27 0 0 1 3.49.2h2.75c.05.15.1.3.14.45a31.89 31.89 0 0 1 -5.96 29.88z"/><path d="m677.82 671.12v1.62a44 44 0 0 1 -41.3 43.92h-.48c-.74 0-1.48.06-2.23.06h-75.48l-9.59 11.59a33.67 33.67 0 0 1 -7.69-12.49c-.32-.9-.59-1.83-.83-2.76a33.74 33.74 0 0 1 32.71-42z"/><path d="m599.31 716.75h-41l-9.59 11.59-49.93 60.27-59.42 71.74-24.2-20 24.83-29.93 83.56-100.88 1.87-2.26 20.53-24.78a31.86 31.86 0 0 1 24.62-11.58 31.27 31.27 0 0 1 3.49.2 28.44 28.44 0 0 1 2.89.45 32 32 0 0 1 22.4 45.18z"/></g><path d="m390.53 827.79h29.62v47.16h-29.62z" fill="#f0a284" transform="matrix(-.63796175 .77006805 -.77006805 -.63796175 1319.56 1082.3)"/><path d="m406.82 820.14h9.73v47.16h-9.73z" fill="#d85e66" transform="matrix(-.63796175 .77006805 -.77006805 -.63796175 1324.05 1064.88)"/><circle cx="628.05" cy="524.6" fill="#313d8b" r="35.05"/><g fill="#f3f9ff"><rect height="132" rx="26.27" transform="matrix(.88676894 .46221299 -.46221299 .88676894 328.71 -217.99)" width="52.54" x="583.02" y="495.92"/><path d="m385.76 611.11h-11.54l-35.46-111.11h6.62a6.74 6.74 0 0 1 6.42 4.68z"/><path d="m384.09 597.83h5.73a3.49 3.49 0 0 1 3.49 3.49v2.86a0 0 0 0 1 0 0h-12.71a0 0 0 0 1 0 0v-2.86a3.49 3.49 0 0 1 3.49-3.49z"/><path d="m396.81 597.83h5.73a3.49 3.49 0 0 1 3.49 3.49v2.86a0 0 0 0 1 0 0h-12.71a0 0 0 0 1 0 0v-2.86a3.49 3.49 0 0 1 3.49-3.49z"/><path d="m409.52 597.83h5.73a3.49 3.49 0 0 1 3.49 3.49v2.86a0 0 0 0 1 0 0h-12.74a0 0 0 0 1 0 0v-2.86a3.49 3.49 0 0 1 3.52-3.49z"/><path d="m422.23 597.83h5.77a3.49 3.49 0 0 1 3.49 3.49v2.86a0 0 0 0 1 0 0h-12.75a0 0 0 0 1 0 0v-2.86a3.49 3.49 0 0 1 3.49-3.49z"/><path d="m434.94 597.83h5.73a3.49 3.49 0 0 1 3.49 3.49v2.86a0 0 0 0 1 0 0h-12.71a0 0 0 0 1 0 0v-2.86a3.49 3.49 0 0 1 3.49-3.49z"/><path d="m447.65 597.83h5.73a3.49 3.49 0 0 1 3.49 3.49v2.86a0 0 0 0 1 0 0h-12.71a0 0 0 0 1 0 0v-2.86a3.49 3.49 0 0 1 3.49-3.49z"/><path d="m460.37 597.83h5.73a3.49 3.49 0 0 1 3.49 3.49v2.86a0 0 0 0 1 0 0h-12.71a0 0 0 0 1 0 0v-2.86a3.49 3.49 0 0 1 3.49-3.49z"/><path d="m473.08 597.83h5.73a3.49 3.49 0 0 1 3.49 3.49v2.86a0 0 0 0 1 0 0h-12.71a0 0 0 0 1 0 0v-2.86a3.49 3.49 0 0 1 3.49-3.49z"/></g><path d="m382.16 611.11h-11.54l-34.87-111a5.5 5.5 0 0 1 5.25-7.16 5.5 5.5 0 0 1 5.25 3.86z" fill="#2e2418"/><path d="m371.38 600.33h117.9a5.39 5.39 0 0 1 5.39 5.39 5.39 5.39 0 0 1 -5.39 5.39h-117.9" fill="#2e2418"/><circle cx="590.78" cy="595.87" fill="#313d8b" r="29.72"/><g fill="#f0a284"><rect height="127.19" rx="23.04" transform="matrix(-.19680182 .98044329 -.98044329 -.19680182 1240.87 167.57)" width="46.09" x="528.76" y="528.46"/><ellipse cx="503.54" cy="583.03" rx="29.38" ry="23.78"/><rect height="33.81" rx="6.61" transform="matrix(-.0270493 .9996341 -.9996341 -.0270493 1092.79 122.55)" width="13.22" x="480.15" y="576.14"/><rect height="33.81" rx="6.61" transform="matrix(-.0270493 .9996341 -.9996341 -.0270493 1068.78 120.64)" width="13.22" x="469.08" y="563.5"/><rect height="33.81" rx="6.61" transform="matrix(-.0270493 .9996341 -.9996341 -.0270493 1067.24 96.3)" width="13.22" x="480.15" y="550.58"/><rect height="33.81" rx="6.61" transform="matrix(-.5 .8660254 -.8660254 -.5 1252.17 402.65)" width="13.22" x="503.24" y="545.89"/></g><rect fill="#fcb798" height="49.26" rx="8.26" transform="matrix(-.19680182 .98044329 -.98044329 -.19680182 1253.54 174.92)" width="16.53" x="546.85" y="576.29"/><path d="m614 450.58a39.7 39.7 0 0 1 -30.46 21.7l-9.81 1.27a23.55 23.55 0 0 1 -9.2-.59l-6.45-18.74 51.12-17.59z" fill="#d85e66"/><path d="m560.36 377.86h32a21.63 21.63 0 0 1 21.64 21.63v29.62a39.74 39.74 0 0 1 -39.74 39.74h-9.9a23.9 23.9 0 0 1 -23.9-23.9v-47.18a19.91 19.91 0 0 1 19.9-19.91z" fill="#f0a284" transform="matrix(.99164867 -.12896867 .12896867 .99164867 -49.8 78.02)"/><rect fill="#592702" height="61.54" rx="8.65" width="17.89" x="605.69" y="795.07"/><rect fill="#a45b0d" height="74.76" rx="12.51" width="38.17" x="595.55" y="751.68"/><path d="m633.72 804.89v9a12.5 12.5 0 0 1 -12.5 12.5h-13.16a12.51 12.51 0 0 1 -12.51-12.5v-9a12.5 12.5 0 0 0 12.51 12.5h13.16a12.5 12.5 0 0 0 12.5-12.5z" fill="#914d08"/><rect fill="#592702" height="31.91" rx="12.54" width="89.94" x="569.67" y="735.72"/><path d="m659.61 748.28v6.81a12.55 12.55 0 0 1 -12.54 12.54h-64.86a12.54 12.54 0 0 1 -12.54-12.54v-6.81a12.54 12.54 0 0 0 12.54 12.55h64.86a12.55 12.55 0 0 0 12.54-12.55z" fill="#441d02"/><path d="m602.35 594.83h171.1a21.56 21.56 0 0 1 21.55 21.56v6.61a21.56 21.56 0 0 1 -21.56 21.56h-128a43.12 43.12 0 0 1 -43.12-43.12v-6.65a0 0 0 0 1 0 0z" fill="#cc7212" transform="matrix(-.13658011 .99062903 -.99062903 -.13658011 1407.96 12.17)"/><rect fill="#cc7212" height="49.78" rx="22.9" width="156.91" x="553.6" y="680.56"/><path d="m581.44 697.69h123.82a22.9 22.9 0 0 1 22.9 22.9v4a22.9 22.9 0 0 1 -22.9 22.9h-165a4.29 4.29 0 0 1 -4.29-4.29 45.49 45.49 0 0 1 45.49-45.49z" fill="#e3892c"/><path d="m665.49 810.11a0 0 0 0 1 0 0v66.12a17.68 17.68 0 0 1 -17.68 17.68h-.21a0 0 0 0 1 0 0v-65.91a17.89 17.89 0 0 1 17.89-17.89z" fill="#a45b0d" transform="matrix(0 1 -1 0 1508.55 195.47)"/><path d="m588.16 594.83h232.64a24.89 24.89 0 0 1 24.89 24.89 24.89 24.89 0 0 1 -24.89 24.89h-182.86a49.78 49.78 0 0 1 -49.78-49.78 0 0 0 0 1 0 0z" fill="#e3892c" transform="matrix(-.13658011 .99062903 -.99062903 -.13658011 1428.7 -5.9)"/><path d="m563.79 810.11h.21a17.68 17.68 0 0 1 17.68 17.68v66.12a0 0 0 0 1 0 0 17.89 17.89 0 0 1 -17.89-17.91v-65.89a0 0 0 0 1 0 0z" fill="#a45b0d" transform="matrix(0 1 -1 0 1424.75 279.27)"/><path d="m698.44 861h-66.12a17.69 17.69 0 0 1 -17.68-17.68v-.22h.74a17.69 17.69 0 0 0 16.94 12.59h65.32a17.86 17.86 0 0 1 .8 5.31z" fill="#914d08"/><path d="m614.64 843.06v.22a17.69 17.69 0 0 1 -17.64 17.72h-66.16a17.86 17.86 0 0 1 .8-5.31h65.36a17.68 17.68 0 0 0 16.93-12.59z" fill="#914d08"/><circle cx="698.44" cy="872.5" fill="#592702" r="23.88"/><path d="m697.62 889.75a15.35 15.35 0 0 1 -2 .13 17.38 17.38 0 1 1 2-34.63 17.37 17.37 0 0 0 0 34.5z" fill="#a45b0d"/><path d="m699.47 892.85a13.84 13.84 0 0 0 2 .15c9.59 0 17.37-9.18 17.37-20.49s-7.73-20.51-17.32-20.51a15.34 15.34 0 0 0 -2 .14c8.63 1.19 15.32 9.85 15.32 20.36s-6.74 19.16-15.37 20.35z" fill="#441d02"/><circle cx="698.44" cy="872.5" fill="#441d02" r="11.55"/><circle cx="698.44" cy="872.5" fill="#a45b0d" r="7.02"/><circle cx="532.92" cy="872.5" fill="#592702" r="23.88"/><path d="m532.1 889.75a15.35 15.35 0 0 1 -2.05.13 17.38 17.38 0 1 1 2.05-34.63 17.37 17.37 0 0 0 0 34.5z" fill="#a45b0d"/><path d="m534 892.85a13.84 13.84 0 0 0 2 .15c9.59 0 17.37-9.18 17.37-20.49s-7.78-20.51-17.37-20.51a15.34 15.34 0 0 0 -2 .14c8.63 1.19 15.33 9.85 15.33 20.36s-6.75 19.16-15.33 20.35z" fill="#441d02"/><circle cx="532.92" cy="872.5" fill="#441d02" r="11.55"/><circle cx="532.92" cy="872.5" fill="#a45b0d" r="7.02"/><path d="m597.35 387.26h15.07a6.89 6.89 0 0 1 6.89 6.89v25.73a7.5 7.5 0 0 1 -7.5 7.5h-.05a14.41 14.41 0 0 1 -14.41-14.38v-25.74a0 0 0 0 1 0 0z" fill="#001066" transform="matrix(.99164867 -.12896867 .12896867 .99164867 -47.47 81.9)"/><circle cx="612.95" cy="415.22" fill="#f0a284" r="11.68"/><path d="m610.58 413.4a3.53 3.53 0 0 0 -.16.66 3.66 3.66 0 0 0 6.47 2.86 3.66 3.66 0 0 1 -7.07-1.79 3.58 3.58 0 0 1 .76-1.73z" fill="#d85e66"/><rect fill="#001066" height="29.78" rx="14.66" transform="matrix(.99164867 -.12896867 .12896867 .99164867 -45.73 77.13)" width="86.72" x="528.98" y="376.59"/><circle cx="569.4" cy="373.46" fill="#001066" r="20.3"/><path d="m615.36 386.11-.05-.46a14.65 14.65 0 0 0 -16.43-12.65l-9.2 1.19a20.3 20.3 0 0 0 -34.68-15 20.29 20.29 0 0 1 31.71 15.43 17.67 17.67 0 0 1 0 2.06l2.76-.35 6.44-.84a14.64 14.64 0 0 1 16.42 12.64l.06.46a14.59 14.59 0 0 1 -3.77 11.84 14.63 14.63 0 0 0 6.74-14.32z" fill="#000d44"/><path d="m560.23 434a7.21 7.21 0 0 0 2.64 4.88c.18.15.37.29.56.42a7.15 7.15 0 0 0 4.76 1.16h.29a7.23 7.23 0 0 0 6.52-7.36q0-.3 0-.6a1.39 1.39 0 0 0 -.52-.94 1.37 1.37 0 0 0 -1-.31l-11.91 1.24a1.4 1.4 0 0 0 -1.34 1.51z" fill="#962f4a"/><path d="m568.22 439.37a5.64 5.64 0 0 0 .22 1.1 7.24 7.24 0 0 0 6.56-7.37 5.76 5.76 0 0 0 -6.75 6.27z" fill="#e1617f"/><path d="m561.74 432.46c.21 1.41 2.51 2.32 5.19 2s4.74-1.64 4.65-3.06z" fill="#fff"/><path d="m563.43 439.33a7.28 7.28 0 0 0 4.76 1.17h.29a7.18 7.18 0 0 0 4.1-1.82 5 5 0 0 0 -4.89-2.06 5.15 5.15 0 0 0 -4.26 2.71z" fill="#fff"/><circle cx="576.7" cy="419.36" fill="#000d44" r="2.84"/><circle cx="554.3" cy="421.72" fill="#000d44" r="2.84"/><path d="m517.44 379.55a31.25 31.25 0 0 0 20.32 38.24 29.61 29.61 0 0 1 -4-.85 31.26 31.26 0 1 1 17.08-60.14l1.18.37a31.26 31.26 0 0 0 -34.58 22.38z" fill="#2a43a8"/><path d="m396.88 869.45-37.68-26.34a23 23 0 1 1 37.68 26.34z" fill="#f3f9ff"/><path d="m352.08 844.65 4.29-5.59a5.78 5.78 0 0 1 7.81-1.29l50.22 33.73a7.22 7.22 0 0 1 1.7 10.38l-7.93 10.36z" fill="#313d8b"/><path d="m410.53 889.15-3 3.89a4.2 4.2 0 0 1 -5.9.78l-52.35-40.1a8 8 0 0 1 -1.49-11.19 8 8 0 0 1 11.21-1.48l14.51 11.12a6.84 6.84 0 0 1 1.27 9.59z" fill="#000b42"/><circle cx="547.5" cy="388.09" fill="#001066" r="31.26"/><rect fill="#ed974a" height="154.89" rx="5.91" transform="matrix(.99325186 .11597734 -.11597734 .99325186 75.78 -79.94)" width="11.81" x="718.81" y="533.66"/><circle cx="547.5" cy="388.09" fill="#2a43a8" r="15.9"/><rect fill="#f2e1d3" height="23.42" rx="2.7" width="55.69" x="280.74" y="269.54"/><rect fill="#f9eee4" height="23.42" rx="2.7" width="55.69" x="242.55" y="301.89"/><rect fill="#f9eee4" height="23.42" rx="2.7" width="55.69" x="172.96" y="301.89"/><rect fill="#f9e7d9" height="23.42" rx="2.7" width="55.69" x="317.29" y="301.89"/><rect fill="#f9e7d9" height="23.42" rx="2.7" width="55.69" x="210.6" y="334.81"/><path d="m848.15 782.09a30.14 30.14 0 0 1 30.14 30.14v16.44a0 0 0 0 1 0 0 30.14 30.14 0 0 1 -30.14-30.14v-16.44a0 0 0 0 1 0 0z" fill="#e5cdba" transform="matrix(.38107038 .92454603 -.92454603 .38107038 1278.88 -299.61)"/><path d="m830.24 757.17a30.14 30.14 0 0 1 30.14 30.14v16.44a0 0 0 0 1 0 0 30.14 30.14 0 0 1 -30.14-30.14v-16.44a0 0 0 0 1 0 0z" fill="#d8b59e" transform="matrix(.92454603 .38107038 -.38107038 .92454603 361.19 -263.23)"/><path d="m846.78 782.09a0 0 0 0 1 0 0v16.44a30.14 30.14 0 0 1 -30.14 30.14 0 0 0 0 1 0 0v-16.44a30.14 30.14 0 0 1 30.14-30.14z" fill="#e5cdba" transform="matrix(-.38107038 .92454603 -.92454603 -.38107038 1893.25 343.32)"/><path d="m900.17 842.43a54 54 0 1 1 -107.56-6.23 54.74 54.74 0 0 1 1.29-7.05h104.62a54.74 54.74 0 0 1 1.29 7.05 53.45 53.45 0 0 1 .36 6.23z" fill="#e5cdba"/><g fill="#d8b59e"><rect height="14.12" rx="7.06" width="123.68" x="785.62" y="815.03"/><path d="m899.81 836.2h-107.2a54.74 54.74 0 0 1 1.29-7.05h104.62a54.74 54.74 0 0 1 1.29 7.05z"/></g></svg>