<svg viewBox="0 0 1000 1000" xmlns="http://www.w3.org/2000/svg"><path d="m972.14 628.2v10.41a132.51 132.51 0 0 1 -63.93 113.39 127.76 127.76 0 0 1 -11.83 6.35c-.7.34-1.41.67-2.12 1a128.46 128.46 0 0 1 -15 5.71l-1.39.42a132.46 132.46 0 0 1 -38.14 5.52h-53.73a27.32 27.32 0 0 0 -27.31 27.32v101.92h-456.69v-101.91a27.26 27.26 0 0 0 -17.36-25.43c-.77-.3-1.55-.57-2.35-.81a27.18 27.18 0 0 0 -3-.68 26 26 0 0 0 -4.61-.4h-90.38c-1.43 0-2.84 0-4.26-.06a137.23 137.23 0 0 1 -32.13-4.81c-1.13-.31-2.26-.63-3.38-1a135.75 135.75 0 0 1 -20.43-8 137.24 137.24 0 0 1 -28.38-18.46q-4.53-3.81-8.71-8a137.67 137.67 0 0 1 57.52-229.07c1.12-.34 2.25-.66 3.38-1a137.34 137.34 0 0 1 36.39-4.87h106.05a35.7 35.7 0 0 0 7.29-.75l.29-.06a35.66 35.66 0 0 0 17.71-9.66 33.77 33.77 0 0 0 2.75-3.11v-.05a34.47 34.47 0 0 0 2.74-4v-.05a35.75 35.75 0 0 0 -30.85-53.83h-178.81a83.6 83.6 0 0 1 -59.11-142.67l.64-.56.26-.25a83.42 83.42 0 0 1 58.23-23.63 69.19 69.19 0 0 0 46.51-17.98c1.07-1 2.1-2 3.11-3a69 69 0 0 0 19.53-43.82c.1-1.5.15-3 .15-4.54a97.92 97.92 0 0 1 97.92-97.92h566a83.62 83.62 0 0 1 80.09 59.56 84.59 84.59 0 0 1 3.52 24.05c0 2.9-.15 5.76-.43 8.58a84.6 84.6 0 0 1 -1.7 10.27 83.64 83.64 0 0 1 -81.48 64.75h-68a48.26 48.26 0 0 0 -17.39 3.21 47 47 0 0 0 -5.89 2.72 49 49 0 0 0 -18.57 18c-.6 1-1.17 2.07-1.7 3.14a48.22 48.22 0 0 0 -5 21.57v.29c0 1.5.09 3 .23 4.44a48.09 48.09 0 0 0 5 17.13c.39.77.8 1.53 1.23 2.27a48.63 48.63 0 0 0 42.18 24.46c.82 0 1.62 0 2.43.05h.22a62.55 62.55 0 0 1 26.12 6.88 63.2 63.2 0 0 1 29.47 32c0 .11.09.21.13.32a61.62 61.62 0 0 1 3.82 13.62 62.82 62.82 0 0 1 .82 10.15v43a41.35 41.35 0 0 0 .28 4.87 43.94 43.94 0 0 0 31 37.23l.27.08a190 190 0 0 1 23 8.54l2.12 1c3.92 1.82 7.88 3.84 11.83 6.08a136.11 136.11 0 0 1 31 23.69 115.24 115.24 0 0 1 11.6 14c.84 1.19 1.65 2.4 2.45 3.63a112.89 112.89 0 0 1 13.13 28.38 137.49 137.49 0 0 1 5.65 40.38z" fill="#fffaf4"/><path d="m636.1 541.75h-28.94l-8.41-93.83a4.25 4.25 0 0 1 4.25-4.62h20.4a4.24 4.24 0 0 1 4.23 3.86z" fill="#f9e7d9"/><circle cx="617.22" cy="490.65" fill="#efd6c5" r="8.82"/><path d="m574.89 443.3h18.4a5.27 5.27 0 0 1 5.27 5.27v93.19a0 0 0 0 1 0 0h-28.94a0 0 0 0 1 0 0v-93.19a5.27 5.27 0 0 1 5.27-5.27z" fill="#f9e7d9"/><circle cx="584.09" cy="490.65" fill="#efd6c5" r="8.82"/><rect fill="#f9e7d9" height="98.45" rx="5.45" transform="matrix(0 1 -1 0 1287.16 -232.6)" width="28.94" x="745.41" y="478.05"/><circle cx="761.76" cy="527.28" fill="#efd6c5" r="8.82"/><rect fill="#f9e7d9" height="98.45" rx="5.45" transform="matrix(0 1 -1 0 1270.59 -273.91)" width="28.94" x="757.77" y="449.11"/><circle cx="774.13" cy="498.34" fill="#efd6c5" r="8.82"/><rect fill="#f9e7d9" height="40.46" rx="5.5" width="51.95" x="644.15" y="614.43"/><circle cx="670.13" cy="634.66" fill="#e8d1c1" r="10.5"/><circle cx="664.88" cy="634.66" fill="#d3aa94" r="1.07"/><circle cx="675.92" cy="634.66" fill="#d3aa94" r="1.07"/><g fill="#f9e7d9"><path d="m950.84 555.8h-396.41v-14h384.81a115.24 115.24 0 0 1 11.6 14z"/><path d="m746.66 343.85h-192.23v-14.05h180.1a48.7 48.7 0 0 0 12.13 14.05z"/><path d="m546.84 230a7.59 7.59 0 0 1 7.59 7.59v662.65a0 0 0 0 1 0 0h-15.18a0 0 0 0 1 0 0v-662.67a7.59 7.59 0 0 1 7.59-7.59z"/></g><rect fill="#f2e1d3" height="23.42" rx="2.7" width="55.69" x="631.46" y="152.99"/><rect fill="#f9eee4" height="23.42" rx="2.7" width="55.69" x="593.27" y="185.34"/><rect fill="#f9eee4" height="23.42" rx="2.7" width="55.69" x="523.68" y="185.34"/><rect fill="#f9e7d9" height="23.42" rx="2.7" width="55.69" x="668.02" y="185.34"/><rect fill="#f9e7d9" height="23.42" rx="2.7" width="55.69" x="561.33" y="218.27"/><rect fill="#f2e1d3" height="23.42" rx="2.7" width="55.69" x="230.11" y="605.44"/><rect fill="#f9eee4" height="23.42" rx="2.7" width="55.69" x="191.92" y="637.79"/><rect fill="#f9eee4" height="23.42" rx="2.7" width="55.69" x="122.33" y="637.79"/><rect fill="#f9e7d9" height="23.42" rx="2.7" width="55.69" x="266.66" y="637.79"/><rect fill="#f9e7d9" height="23.42" rx="2.7" width="55.69" x="159.98" y="670.72"/><rect fill="#f2e1d3" height="21.16" rx="2.44" width="50.31" x="117.8" y="292.17"/><rect fill="#f9eee4" height="21.16" rx="2.44" width="50.31" x="83.3" y="321.4"/><rect fill="#f9e7d9" height="21.16" rx="2.44" width="50.31" x="150.83" y="321.4"/><rect fill="#f2e1d3" height="21.16" rx="2.44" width="50.31" x="775.41" y="650.27"/><rect fill="#f9eee4" height="21.16" rx="2.44" width="50.31" x="740.91" y="679.5"/><rect fill="#f9e7d9" height="21.16" rx="2.44" width="50.31" x="808.44" y="679.5"/><rect fill="#a66633" height="17.61" rx="8.8" transform="matrix(-1 0 0 -1 220.39 1818.09)" width="74.06" x="73.17" y="900.24"/><rect fill="#a66633" height="17.61" rx="8.8" transform="matrix(-1 0 0 -1 1118.73 1818.09)" width="809.94" x="154.4" y="900.24"/><rect fill="#dee4eb" height="163.51" rx="32.54" transform="matrix(-.76300688 .64639036 -.64639036 -.76300688 979.95 264.88)" width="65.09" x="408.87" y="230.33"/><rect fill="#ef927f" height="41.89" rx="8.18" transform="matrix(.17347629 .98483805 -.98483805 .17347629 823.77 -343.45)" width="16.37" x="608.32" y="298.14"/><path d="m630.49 324.92-25.12 4.43a7.68 7.68 0 0 1 -1.43.13 8.11 8.11 0 0 1 -4.18-1.16 8.56 8.56 0 0 0 2.44-.06l25.13-4.43a8.18 8.18 0 0 0 2.77-15.09 8.18 8.18 0 0 1 .39 16.18z" fill="#ef927f"/><circle cx="479.09" cy="346.8" fill="#004393" r="36.82"/><rect fill="#f0a284" height="157.55" rx="28.54" transform="matrix(.3385737 .94093988 -.94093988 .3385737 661.62 -279.3)" width="57.09" x="500.93" y="252.17"/><ellipse cx="586.96" cy="311.12" fill="#f0a284" rx="36.39" ry="29.46" transform="matrix(.98917011 -.14677364 .14677364 .98917011 -39.3 89.51)"/><rect fill="#e28f79" height="157.55" rx="28.54" transform="matrix(.3385737 .94093988 -.94093988 .3385737 661.62 -279.3)" width="57.09" x="500.93" y="252.17"/><ellipse cx="586.96" cy="311.12" fill="#f0a284" rx="36.39" ry="29.46" transform="matrix(.98917011 -.14677364 .14677364 .98917011 -39.3 89.51)"/><path d="m623 305.78a24.25 24.25 0 0 0 -2.71-8c-1.75 7.9-7.3 15-15.2 19.85a43.08 43.08 0 0 1 -16.15 5.76 45.53 45.53 0 0 1 -4.6.44l-24.07 8.67-70.78 25.4a28.47 28.47 0 0 1 -35.44-14.63 28.22 28.22 0 0 0 1.3 14.34 28.49 28.49 0 0 0 36.52 17.2l94.53-34a1.73 1.73 0 0 0 .24-.1 43.77 43.77 0 0 0 4.65-.45c19.87-2.95 34.06-18.4 31.71-34.48z" fill="#ef927f"/><g fill="#f0a284"><rect height="41.89" rx="8.18" transform="matrix(.25021103 .96819133 -.96819133 .25021103 756.88 -372.38)" width="16.37" x="610.69" y="281.56"/><rect height="41.89" rx="8.18" transform="matrix(.17347629 .98483805 -.98483805 .17347629 784.4 -356.65)" width="16.37" x="596.51" y="268.08"/><rect height="41.89" rx="8.18" transform="matrix(.62169475 .78325962 -.78325962 .62169475 442.91 -342.06)" width="16.37" x="567.36" y="266.52"/><circle cx="565.36" cy="305.29" r="16.88"/></g><path d="m369.61 120.15h22a10.9 10.9 0 0 1 10.9 10.9v8.34a28.55 28.55 0 0 1 -28.51 28.55 4.36 4.36 0 0 1 -4.36-4.36v-43.43a0 0 0 0 1 -.03 0z" fill="#004393"/><g fill="#9a463b"><rect height="24.52" rx="12.26" width="210.64" x="324.63" y="509.7"/><path d="m413.24 516.2-8.41 24-14.81 42.27-72.22 204.88-39.69 112.6h-30.7l28.29-112.6 51.48-204.88 11.36-42.27 6.45-24z"/><path d="m521.79 516.2-1.37 24-2.41 42.27-14.45 204.88-7.95 112.6h-30.7l-3.45-112.6-6.29-204.88-1.05-42.27-.59-24z"/><path d="m393.85 364.94h96.34a4.22 4.22 0 0 1 4.22 4.22 30.75 30.75 0 0 1 -30.75 30.75h-100.56a0 0 0 0 1 0 0v-4.22a30.75 30.75 0 0 1 30.75-30.75z"/><rect height="158.75" rx="17.03" width="34.05" x="406.77" y="375.47"/><path d="m317.43 282.89h64.57a46.75 46.75 0 0 1 46.75 46.75v134.77a46.75 46.75 0 0 1 -46.75 46.75h-111.32a0 0 0 0 1 0 0v-181.52a46.75 46.75 0 0 1 46.75-46.75z"/></g><path d="m275.7 787.35h42.1l-39.69 112.6h-30.7z" fill="#6f232d"/><path d="m503.56 787.35-7.95 112.6h-30.7l-3.45-112.6z" fill="#6f232d"/><path d="m468.65 703.48h36.69v58.41h-36.69z" fill="#f0a284" transform="matrix(.04065496 .99917325 -.99917325 .04065496 1199.25 216.28)"/><path d="m480.46 691.18h12.06v58.41h-12.06z" fill="#ef927f" transform="matrix(.04065496 .99917325 -.99917325 .04065496 1186.48 204.98)"/><path d="m481.75 756.85 56.91 2.34a28.48 28.48 0 1 0 -56.91-2.34z" fill="#fff"/><path d="m544.51 766.05v-8.73a7.17 7.17 0 0 0 -6.73-7.13l-74.78-4.47a8.93 8.93 0 0 0 -9.47 8.95v16.16z" fill="#004393"/><path d="m453.52 766v8a3.24 3.24 0 0 0 3.26 3.24l83.65-.22a9.88 9.88 0 0 0 9.86-9.91 9.87 9.87 0 0 0 -9.91-9.85l-22.64.06a8.48 8.48 0 0 0 -8.46 8.5z" fill="#108fd4"/><path d="m386.55 633.88h28.36v57.82h-28.36z" fill="#ef927f" transform="matrix(.57100017 -.82094994 .82094994 .57100017 -372.2 613.3)"/><path d="m385.7 676.74 43.78 36.43a28.48 28.48 0 1 0 -43.78-36.43z" fill="#efdadc"/><path d="m430 722.18 5.29-6.94a7.16 7.16 0 0 0 -1-9.75l-56.69-49a8.94 8.94 0 0 0 -13 1.35l-9.8 12.86z" fill="#004393"/><path d="m357.71 666.86-5 6.59a3 3 0 0 0 .57 4.22l66.72 50.8a9.88 9.88 0 0 0 13.85-1.88 9.88 9.88 0 0 0 -1.85-13.85l-18-13.74a8.47 8.47 0 0 0 -11.88 1.61z" fill="#013568"/><path d="m559.77 437.74a39.43 39.43 0 0 1 9.86 54.88l-128 184-64.73-45 128-184a39.42 39.42 0 0 1 54.87-9.88z" fill="#004393"/><path d="m535.41 509.7h-105.28a54.51 54.51 0 0 1 -54.51-54.52v-13.29a15.74 15.74 0 0 1 15.73-15.74h144.06a41.79 41.79 0 0 1 41.78 41.78 41.78 41.78 0 0 1 -41.78 41.77z" fill="#004393"/><rect fill="#fff" height="205.21" rx="28.07" transform="matrix(-.99999925 .00122173 -.00122173 -.99999925 706.49 705.62)" width="127.03" x="289.52" y="250.42"/><path d="m340.68 233.09h32.43a66.56 66.56 0 0 1 66.56 66.56v6.52a40.71 40.71 0 0 1 -40.67 40.69h-84.17a40.71 40.71 0 0 1 -40.71-40.71v-6.52a66.56 66.56 0 0 1 66.56-66.54z" fill="#fff" transform="matrix(-.99999925 .00122173 -.00122173 -.99999925 714.14 579.53)"/><path d="m368.61 229.44v3.63l-44.28.05-.03-22.23-.01-21.07 44.27-.04z" fill="#f0a284"/><path d="m289.55 455.18a54.52 54.52 0 0 0 51.16 54.41 5.68 5.68 0 0 0 .59 0c.91.05 1.83.08 2.76.08h105.29a41.71 41.71 0 0 0 41.76-41.12c.36-23.33-19.21-42.43-42.55-42.43h-159z" fill="#108fd4"/><path d="m412.15 471.12.27 2 3.07 22.41 15.71 114.47 15.69 114.31 78.42-10.76-6.77-49.36-22.06-160.73-5.92-43.1a39.46 39.46 0 0 0 -18.35-28.26 37.71 37.71 0 0 0 -3.8-2.08 39.58 39.58 0 0 0 -56.26 41.1z" fill="#108fd4"/><path d="m368.61 229.44a28.75 28.75 0 0 1 -3.09.1 56.77 56.77 0 0 1 -41.22-18.65v-21.07h44.27z" fill="#ef927f"/><path d="m395.09 134.24-.09 8.76-.66 41.3a34.23 34.23 0 0 1 -34.75 33.66 56.89 56.89 0 0 1 -56-57.78l.4-24.87a31 31 0 0 1 31.45-30.46l31.63.51a28.48 28.48 0 0 1 28.02 28.88z" fill="#f0a284"/><path d="m395.09 134.24-.09 8.76a87.62 87.62 0 0 1 -31.11 5.38c-30 0-54.35-13.38-54.55-29.92a30.89 30.89 0 0 1 26.13-13.61l31.63.51a28.48 28.48 0 0 1 27.99 28.88z" fill="#ef927f"/><g fill="#db8d5c"><path d="m317.93 392.5v124.7a17 17 0 0 1 -34.06 0v-124.7a16.68 16.68 0 0 1 1.2-6.25 17 17 0 0 1 32.86 6.25z"/><path d="m346.51 516.2-6.32 18.02-2.09 5.98-9.75 27.83-5.06 14.44-72.22 204.88-39.69 112.6h-30.7l28.3-112.6 51.48-204.88 3.88-14.44 7.47-27.83 1.61-5.98 4.84-18.02z"/><path d="m455.07 516.2-1.03 18.02-.34 5.98-1.6 27.83-.81 14.44-14.46 204.88-7.95 112.6h-30.7l-3.44-112.6-6.28-204.88-.37-14.44-.68-27.83-.16-5.98-.44-18.02z"/><rect height="34.25" rx="14.49" width="210.64" x="257.9" y="499.97"/></g><rect fill="#f1a873" height="20.02" rx="9.51" width="155.21" x="285.62" y="507.08"/><g fill="#cb7748"><path d="m273.42 534.22h66.77l-2.09 5.98-9.75 27.83h-64.01z"/><path d="m454.04 534.22-.34 5.98-1.6 27.83h-64.01l-.68-27.83-.16-5.98z"/><path d="m317.93 392.5v28.72h-34.06v-28.72a16.68 16.68 0 0 1 1.2-6.25h31.67a16.87 16.87 0 0 1 1.19 6.25z"/><path d="m251.07 787.35-39.69 112.6h-30.7l28.3-112.6z"/><path d="m436.83 787.35-7.95 112.6h-30.7l-3.44-112.6z"/></g><path d="m271 364.94h96.34a4.22 4.22 0 0 1 4.22 4.22 30.75 30.75 0 0 1 -30.75 30.75h-100.61a0 0 0 0 1 0 0v-4.22a30.75 30.75 0 0 1 30.8-30.75z" fill="#db8d5c"/><path d="m371.51 364.94v4.23a30.74 30.74 0 0 1 -30.74 30.74h-48a30.75 30.75 0 0 0 30.75-30.74v-4.23z" fill="#e9a06d"/><path d="m574.37 545.9h141.87v38.41h-141.87z" fill="#cb7748"/><path d="m752.9 901.66h-14.12l-12.36-114.31-44.3-409.97-2.52-23.36h31.38l1.79 23.36 31.38 409.97z" fill="#db8d5c"/><path d="m609.66 354.02-2.8 23.36-49.16 409.97-13.71 114.31h-15.66l9.71-114.31 34.81-409.97 1.99-23.36z" fill="#db8d5c"/><path d="m574.84 354.02h34.82l-2.8 23.36h-34.01z" fill="#cb7748"/><path d="m712.77 377.38h-30.65l-2.52-23.36h31.38z" fill="#cb7748"/><rect fill="#db8d5c" height="24.86" rx="9.95" width="187.36" x="551.24" y="342.38"/><path d="m538.04 787.35h19.66l-13.71 114.31h-15.66z" fill="#cb7748"/><path d="m752.9 901.66h-14.12l-12.36-114.31h17.73z" fill="#cb7748"/><path d="m728.55 719c-1.34 0-2.51-1.53-2.72-3.66l-22.62-236c-.23-2.34.81-4.52 2.31-4.87s2.9 1.26 3.12 3.6l22.63 236c.22 2.35-.81 4.53-2.31 4.88a2 2 0 0 1 -.41.05z" fill="#f1a873"/><path d="m556.34 719c1.34 0 2.51-1.53 2.72-3.66l22.62-236c.23-2.34-.81-4.52-2.31-4.87s-2.9 1.26-3.12 3.6l-22.63 236c-.22 2.35.81 4.53 2.31 4.88a2 2 0 0 0 .41.05z" fill="#f1a873"/><g fill="#dee4eb"><path d="m606.4 329.47h4.21a4 4 0 0 1 4 4v2.34a0 0 0 0 1 0 0h-12.24a0 0 0 0 1 0 0v-2.34a4 4 0 0 1 4.03-4z"/><path d="m594.14 329.47h4.21a4 4 0 0 1 4 4v2.34a0 0 0 0 1 0 0h-12.23a0 0 0 0 1 0 0v-2.34a4 4 0 0 1 4.02-4z"/><path d="m581.89 329.47h4.21a4 4 0 0 1 4 4v2.34a0 0 0 0 1 0 0h-12.24a0 0 0 0 1 0 0v-2.34a4 4 0 0 1 4.03-4z"/><path d="m569.63 329.47h4.21a4 4 0 0 1 4 4v2.34a0 0 0 0 1 0 0h-12.24a0 0 0 0 1 0 0v-2.34a4 4 0 0 1 4.03-4z"/><path d="m557.37 329.47h4.21a4 4 0 0 1 4 4v2.34a0 0 0 0 1 0 0h-12.23a0 0 0 0 1 0 0v-2.34a4 4 0 0 1 4.02-4z"/><path d="m545.12 329.47h4.21a4 4 0 0 1 4 4v2.34a0 0 0 0 1 0 0h-12.24a0 0 0 0 1 0 0v-2.34a4 4 0 0 1 4.03-4z"/><path d="m532.86 329.47h4.21a4 4 0 0 1 4 4v2.34a0 0 0 0 1 0 0h-12.24a0 0 0 0 1 0 0v-2.34a4 4 0 0 1 4.03-4z"/></g><rect fill="#004393" height="11.95" rx="5.98" width="167.45" x="492.54" y="330.42"/><path d="m613.86 342.37h139.72a12.78 12.78 0 0 0 12.4-9.66l27.23-108.19a12.78 12.78 0 0 0 -12.4-15.9h-123.32a12.77 12.77 0 0 0 -12.39 9.66z" fill="#108fd4"/><path d="m793.21 224.52-27.21 108.19a12.79 12.79 0 0 1 -12.4 9.67h-139.73l3-12h110.39a12.8 12.8 0 0 0 12.41-9.67l27.22-108.19a12.66 12.66 0 0 0 .36-3.94h13.56a12.79 12.79 0 0 1 12.4 15.94z" fill="#004393"/><circle cx="712.28" cy="279.07" fill="#dee4eb" r="6.99"/><path d="m721.65 289.54a13.7 13.7 0 1 1 -18.93-18.92 13.71 13.71 0 0 0 18.93 18.92z" fill="#dee4eb"/><path d="m295.1 120.15h32.9a0 0 0 0 1 0 0v19.25a28.55 28.55 0 0 1 -28.55 28.55 4.36 4.36 0 0 1 -4.36-4.36v-43.44a0 0 0 0 1 0 0z" fill="#004393"/><ellipse cx="346.45" cy="112.28" fill="#004393" rx="54.57" ry="30.13"/><path d="m393 112.28c0 12.32-18.08 22.3-40.38 22.3-1.87 0-3.72-.07-5.53-.2 19.67-1.5 34.84-10.82 34.84-22.1s-15.22-20.6-34.93-22.08c1.81-.14 3.66-.21 5.53-.21 22.34.01 40.47 10.01 40.47 22.29z" fill="#108fd4"/><ellipse cx="324.3" cy="107" fill="#108fd4" rx="25.92" ry="14.31"/><circle cx="305.91" cy="158.51" fill="#f0a284" r="14.47"/><rect fill="#dee4eb" height="163.51" rx="32.54" transform="matrix(-.88676894 .46221299 -.46221299 -.88676894 736.52 449.63)" width="65.09" x="280.65" y="233.28"/><path d="m341 390.83a32.6 32.6 0 0 1 -33.9-17.12l-45.48-87.27a32.54 32.54 0 0 1 33.85-47.21 32.55 32.55 0 0 0 -23.82 47.21l45.49 87.27a32.5 32.5 0 0 0 23.86 17.12z" fill="#fff"/><circle cx="336.12" cy="357.09" fill="#004393" r="36.82"/><rect fill="#f0a284" height="157.55" rx="28.54" transform="matrix(.19680182 .98044329 -.98044329 .19680182 654.22 -93.87)" width="57.09" x="355.86" y="273.59"/><ellipse cx="444.18" cy="341.19" fill="#f0a284" rx="36.39" ry="29.46"/><path d="m480.56 340.77c-2.11 13-14.74 23.34-30.74 25.24a44.62 44.62 0 0 1 -5.33.31 41.42 41.42 0 0 1 -4.62-.24l-.29.07-10 2-88.48 17.76a28.55 28.55 0 0 1 -33.6-22.37 28.73 28.73 0 0 1 -.56-5.49 28.58 28.58 0 0 0 28.21 32.74 28.78 28.78 0 0 0 5.65-.56l98.5-19.77.28-.07a44.15 44.15 0 0 0 4.63.24c20.1 0 36.39-13.19 36.39-29.45-.03-.18-.03-.27-.04-.41z" fill="#fcb798"/><g fill="#f0a284"><rect height="41.89" rx="8.18" transform="matrix(.0270493 .9996341 -.9996341 .0270493 805.82 -120.79)" width="16.37" x="456.78" y="332.65"/><rect height="41.89" rx="8.18" transform="matrix(.0270493 .9996341 -.9996341 .0270493 803.51 -149.74)" width="16.37" x="470.5" y="316.99"/><rect height="41.89" rx="8.18" transform="matrix(.0270493 .9996341 -.9996341 .0270493 774.17 -151.59)" width="16.37" x="456.78" y="300.99"/><rect height="41.89" rx="8.18" transform="matrix(.5 .8660254 -.8660254 .5 491.95 -219.84)" width="16.37" x="428.18" y="295.17"/></g><rect fill="#fcb798" height="61.01" rx="8.6" transform="matrix(.19680182 .98044329 -.98044329 .19680182 653.32 -76.34)" width="17.2" x="364.66" y="330.07"/><circle cx="352.26" cy="158.51" fill="#361647" r="3.38"/><circle cx="377.07" cy="158.51" fill="#361647" r="3.38"/><path d="m308.72 166v-12.27a2 2 0 0 0 -2.56-1.86 8.4 8.4 0 0 0 0 16 2 2 0 0 0 2.56-1.87z" fill="#ef927f"/><circle cx="308.08" cy="159.87" fill="#fcf4e6" r="5.86"/><rect fill="#fcf4e6" height="15.64" rx="2.38" transform="matrix(.77571608 -.63108206 .63108206 .77571608 -34.87 235.19)" width="4.77" x="311.07" y="158.83"/><path d="m315.86 170.27-4.7-5.77-.4-.49a5 5 0 0 1 -1.3.16h-.48a5.39 5.39 0 0 1 -4.91-5.37 5.25 5.25 0 0 1 1-3.16 5.32 5.32 0 0 0 -2.06 4.23 5.39 5.39 0 0 0 5.39 5.39 5 5 0 0 0 1.29-.16l5.11 6.26a2.18 2.18 0 0 0 3.08.32 2.13 2.13 0 0 0 .62-.82 2.18 2.18 0 0 1 -2.64-.59z" fill="#fff"/><path d="m372.29 173a8.63 8.63 0 0 1 -2.55 6.11 8 8 0 0 1 -.62.56 8.52 8.52 0 0 1 -5.51 2h-.35a8.55 8.55 0 0 1 -5.09-1.67 8.67 8.67 0 0 1 -3.51-6.29c0-.23 0-.48 0-.72a1.69 1.69 0 0 1 1.68-1.67h14.31a1.67 1.67 0 0 1 1.64 1.68z" fill="#962f4a"/><path d="m363.44 180.34a6.45 6.45 0 0 1 -.13 1.33h-.05a8.65 8.65 0 0 1 -8.6-8 7.12 7.12 0 0 1 1.92-.27 6.88 6.88 0 0 1 6.86 6.94z" fill="#e1617f"/><path d="m370.3 171.36c-.07 1.7-2.69 3-5.91 3s-5.83-1.37-5.9-3.07z" fill="#fff"/></svg>